<svg width="32" height="32" viewBox="0 0 32 32" fill="none" xmlns="http://www.w3.org/2000/svg">
<g clip-path="url(#clip0_26_371)">
<path d="M17.8516 31.0838H12.8955C12.0677 31.0838 11.3943 30.4117 11.3943 29.5855V18.4286H8.50276C7.67493 18.4286 7.00153 17.7562 7.00153 16.9303V12.1495C7.00153 11.3233 7.67493 10.6512 8.50276 10.6512H11.3943V8.25715C11.3943 5.88338 12.1411 3.8638 13.5538 2.4171C14.9729 0.963807 16.956 0.195801 19.2889 0.195801L23.0686 0.201928C23.8951 0.203342 24.5673 0.875435 24.5673 1.70023V6.13907C24.5673 6.96528 23.8941 7.63737 23.0665 7.63737L20.5216 7.63832C19.7455 7.63832 19.5479 7.79361 19.5056 7.84122C19.436 7.92016 19.3531 8.14333 19.3531 8.75957V10.651H22.8753C23.1404 10.651 23.3973 10.7162 23.6181 10.8392C24.0943 11.1048 24.3904 11.607 24.3904 12.1497L24.3885 16.9305C24.3885 17.7562 23.7151 18.4283 22.8873 18.4283H19.3531V29.5855C19.3531 30.4117 18.6795 31.0838 17.8516 31.0838ZM13.2086 29.273H17.5385V17.6179C17.5385 17.0662 17.9883 16.6176 18.5408 16.6176H22.5742L22.5759 12.462H18.5406C17.9881 12.462 17.5385 12.0133 17.5385 11.4616V8.75957C17.5385 8.05213 17.6105 7.2476 18.1456 6.6429C18.7921 5.91189 19.8109 5.82753 20.5212 5.82753L22.753 5.82659V2.01224L19.2875 2.00659C15.5384 2.00659 13.2086 4.4018 13.2086 8.25715V11.4616C13.2086 12.0131 12.759 12.462 12.2065 12.462H8.81586V16.6176H12.2065C12.759 16.6176 13.2086 17.0662 13.2086 17.6179V29.273ZM23.0651 2.01272H23.0653H23.0651Z" fill="white"/>
</g>
<defs>
<clipPath id="clip0_26_371">
<rect width="30.888" height="30.888" fill="white" transform="translate(0.322205 0.255859)"/>
</clipPath>
</defs>
</svg>
