<svg width="376" height="252" viewBox="0 0 376 252" fill="none" xmlns="http://www.w3.org/2000/svg">
<g clip-path="url(#clip0_20_123)">
<path d="M299.534 111.521L300.65 102.571C301.047 99.3902 302.69 96.4973 305.219 94.5287C307.748 92.5601 310.954 91.6771 314.134 92.074C317.313 92.4708 320.205 94.115 322.173 96.6447C324.14 99.1745 325.023 102.383 324.626 105.563L323.51 114.514C323.456 114.941 323.235 115.329 322.896 115.593C322.556 115.858 322.126 115.977 321.699 115.924L300.943 113.333C300.516 113.279 300.128 113.058 299.864 112.719C299.6 112.379 299.481 111.948 299.534 111.521Z" fill="#2F2E41"/>
<path d="M309.476 114.191C314.368 114.191 318.333 110.224 318.333 105.33C318.333 100.436 314.368 96.4689 309.476 96.4689C304.584 96.4689 300.619 100.436 300.619 105.33C300.619 110.224 304.584 114.191 309.476 114.191Z" fill="#FFB8B8"/>
<path d="M297.725 102.933C298.041 100.418 299.342 98.1315 301.341 96.5748C303.341 95.0181 305.876 94.3185 308.391 94.6295L310.18 94.8528C312.694 95.1694 314.98 96.4707 316.536 98.4712C318.092 100.472 318.791 103.008 318.48 105.524L318.458 105.703L314.677 105.231L313.837 101.457L313.129 105.037L311.175 104.794L310.751 102.889L310.394 104.696L297.702 103.112L297.725 102.933Z" fill="#2F2E41"/>
<path d="M266.155 136.94C266.425 137.471 266.809 137.937 267.28 138.304C267.75 138.672 268.295 138.931 268.876 139.065C269.457 139.199 270.061 139.203 270.644 139.078C271.227 138.954 271.776 138.702 272.252 138.342L280.297 143.057L284.353 138.865L272.899 132.366C272.241 131.607 271.328 131.115 270.332 130.984C269.337 130.853 268.327 131.093 267.496 131.656C266.665 132.22 266.069 133.069 265.822 134.043C265.575 135.017 265.693 136.047 266.155 136.94Z" fill="#FFB8B8"/>
<path d="M292.522 145.412C286.588 145.412 276.145 142.754 275.567 142.605L275.385 142.559L277.028 134.234L292.978 137.386L301.642 125.179L311.59 124.167L311.313 124.533C311.183 124.703 298.36 141.591 296.364 144.424C295.861 145.139 294.422 145.412 292.522 145.412Z" fill="#3F3D56"/>
<path d="M294.113 176.655L293.875 176.542C293.825 176.518 288.783 174.064 286.172 169.275C283.573 164.508 295.739 144.287 296.59 142.884L296.602 136.462L300.979 124.641L306.561 121.485L301.768 132.671L294.113 176.655Z" fill="#3F3D56"/>
<path d="M288.521 245.675L283.187 245.675L280.649 225.09L288.522 225.091L288.521 245.675Z" fill="#FFB8B8"/>
<path d="M289.881 250.848L272.681 250.847V250.63C272.681 248.853 273.386 247.15 274.642 245.894C275.897 244.638 277.6 243.932 279.376 243.932H279.376L289.882 243.933L289.881 250.848Z" fill="#2F2E41"/>
<path d="M345.819 240.998L340.75 242.66L331.931 223.889L339.413 221.437L345.819 240.998Z" fill="#FFB8B8"/>
<path d="M348.722 245.491L332.377 250.848L332.309 250.641C331.756 248.953 331.896 247.115 332.698 245.53C333.501 243.945 334.899 242.744 336.586 242.191L336.587 242.191L346.57 238.919L348.722 245.491Z" fill="#2F2E41"/>
<path d="M335.491 237.633L320.284 212.235L307.447 185.099L295.895 209.069L291.306 240.113L275.212 240.337L275.275 240.085L299.904 142.184L319.192 145.067L318.314 157.805L318.837 158.549C323.194 164.741 327.699 171.144 325.116 178.045L332.441 199.805L348.655 236.036L335.491 237.633Z" fill="#2F2E41"/>
<path d="M300.785 163.402C297.99 163.402 294.801 160.21 296.455 154.759L296.348 154.681L300.322 137.118C296.854 132.157 301.426 128.062 301.855 127.697L304.037 123.767L313.666 117.657L318.538 158.155L318.466 158.224C314.947 161.592 303.129 163.402 300.785 163.402Z" fill="#FFFFDD"/>
<path d="M320.505 172.54C320.122 172.546 319.74 172.506 319.367 172.42C318.993 172.326 318.387 171.849 317.45 168.797C313.725 156.666 309.328 120.164 312.523 116.592L312.596 116.511L317.841 117.385C318.277 117.063 320.565 115.465 322.677 115.743C323.111 115.798 323.53 115.941 323.907 116.164C324.284 116.387 324.612 116.685 324.869 117.04L324.906 117.087L326.577 140.871L332.698 168.859L332.552 168.926C332.196 169.088 324.551 172.54 320.505 172.54Z" fill="#3F3D56"/>
<path d="M316.977 163.245C317.573 163.225 318.158 163.074 318.69 162.804C319.221 162.534 319.687 162.15 320.055 161.68C320.422 161.21 320.682 160.665 320.816 160.084C320.951 159.502 320.956 158.898 320.832 158.315L328.51 153.024L326.434 147.571L315.696 155.196C314.729 155.469 313.897 156.088 313.357 156.935C312.816 157.782 312.605 158.797 312.763 159.79C312.921 160.782 313.437 161.681 314.214 162.318C314.99 162.955 315.974 163.285 316.977 163.245Z" fill="#FFB8B8"/>
<path d="M325.977 157.263L319.137 152.246L328.751 139.13L321.373 126.104L324.674 116.661L324.887 117.068C324.987 117.257 334.84 136.035 336.558 139.045C338.347 142.175 326.597 156.509 326.096 157.118L325.977 157.263Z" fill="#3F3D56"/>
<path d="M172.125 216.296L166.304 213.844L162.311 184.65H109.133L104.805 213.724L99.597 216.329C99.3478 216.454 99.148 216.659 99.0299 216.912C98.9118 217.164 98.8824 217.449 98.9465 217.72C99.0105 217.992 99.1642 218.233 99.3826 218.406C99.6011 218.579 99.8715 218.673 100.15 218.673H171.646C171.931 218.673 172.208 218.575 172.429 218.394C172.65 218.213 172.802 217.961 172.858 217.681C172.915 217.401 172.872 217.11 172.739 216.858C172.605 216.605 172.389 216.407 172.125 216.296Z" fill="#E6E6E6"/>
<path d="M266.626 188.534H5.40216C4.0316 188.531 2.71822 187.984 1.75016 187.013C0.782111 186.043 0.238443 184.727 0.238434 183.356V146.505H271.79V183.356C271.79 184.727 271.246 186.043 270.278 187.013C269.31 187.984 267.996 188.531 266.626 188.534Z" fill="#CCCCCC"/>
<path d="M272.063 163.922H0V6.24138C0.00191109 4.58661 0.659846 3.00017 1.82947 1.83009C2.99909 0.660013 4.58488 0.00185582 6.23894 0H265.824C267.478 0.00185156 269.064 0.660009 270.233 1.83009C271.403 3.00016 272.061 4.5866 272.063 6.24138V163.922Z" fill="#006A71"/>
<path d="M255.814 152.477H16.2492C14.974 152.476 13.7515 151.969 12.8498 151.066C11.9481 150.164 11.4409 148.941 11.4395 147.666V16.2562C11.4409 14.9804 11.9481 13.7573 12.8498 12.8552C13.7515 11.9531 14.974 11.4457 16.2492 11.4442H255.814C257.089 11.4457 258.311 11.9531 259.213 12.8552C260.115 13.7573 260.622 14.9804 260.623 16.2562V147.666C260.622 148.941 260.115 150.164 259.213 151.066C258.311 151.969 257.089 152.476 255.814 152.477Z" fill="white"/>
<path d="M203.217 218.978H68.6028C68.4649 218.981 68.3299 218.938 68.2189 218.856C68.1078 218.774 68.027 218.658 67.9888 218.526C67.9651 218.435 67.9623 218.341 67.9807 218.249C67.9992 218.158 68.0384 218.072 68.0953 217.998C68.1522 217.924 68.2254 217.864 68.3091 217.823C68.3928 217.781 68.4848 217.76 68.5781 217.76H203.167C203.313 217.755 203.456 217.799 203.573 217.885C203.69 217.972 203.774 218.095 203.812 218.236C203.832 218.325 203.831 218.418 203.811 218.506C203.79 218.595 203.75 218.678 203.693 218.75C203.635 218.821 203.563 218.878 203.481 218.918C203.399 218.957 203.309 218.978 203.217 218.978Z" fill="#CCCCCC"/>
<path d="M253.256 32.6891H195.414V76.8974H253.256V32.6891Z" fill="#F2F2F2"/>
<path d="M250.382 34.8857H198.289V74.7007H250.382V34.8857Z" fill="white"/>
<path d="M225.25 64.4186C225.257 64.4186 225.264 64.4185 225.271 64.4181C228.797 64.2336 232.121 62.7123 234.566 60.1636C237.011 57.615 238.394 54.2303 238.433 50.6979C238.473 47.1655 237.166 43.7507 234.779 41.1478C232.391 38.5449 229.103 36.9495 225.581 36.6859C225.538 36.6825 225.494 36.6881 225.453 36.7024C225.412 36.7167 225.374 36.7394 225.342 36.7691C225.31 36.7982 225.284 36.8337 225.266 36.8732C225.249 36.9127 225.24 36.9555 225.239 36.9988L224.936 64.0977C224.935 64.1819 224.967 64.263 225.026 64.3232C225.085 64.3833 225.166 64.4176 225.25 64.4186Z" fill="#006A71"/>
<path d="M214.357 41.1669C214.466 41.1682 214.569 41.2123 214.644 41.2896L223.97 50.8301C224.007 50.8683 224.037 50.9135 224.057 50.9632C224.076 51.0128 224.086 51.066 224.086 51.1195L223.94 64.0864C223.94 64.1421 223.928 64.1971 223.905 64.2479C223.883 64.2987 223.85 64.3443 223.809 64.3817C223.767 64.4197 223.719 64.4487 223.666 64.4671C223.613 64.4855 223.557 64.4928 223.501 64.4886C220.908 64.2945 218.421 63.3809 216.319 61.8504C214.216 60.3199 212.582 58.2333 211.6 55.8249C210.618 53.4165 210.327 50.7818 210.759 48.2169C211.191 45.652 212.33 43.2585 214.047 41.3053C214.084 41.2632 214.129 41.2292 214.18 41.2054C214.231 41.1816 214.286 41.1685 214.342 41.167C214.347 41.1669 214.352 41.1668 214.357 41.1669Z" fill="#E6E6E6"/>
<path d="M223.84 36.5751C223.944 36.5764 224.043 36.6171 224.119 36.6892C224.159 36.7276 224.191 36.7739 224.212 36.8253C224.234 36.8767 224.245 36.9319 224.244 36.9876L224.113 48.6872C224.112 48.7678 224.087 48.8463 224.042 48.9127C223.996 48.9792 223.932 49.0307 223.857 49.0607C223.782 49.0907 223.701 49.0978 223.622 49.0813C223.543 49.0647 223.471 49.0251 223.415 48.9675L215.277 40.6422C215.239 40.6026 215.208 40.5555 215.188 40.5039C215.169 40.4523 215.159 40.3971 215.161 40.3418C215.163 40.2865 215.177 40.2322 215.2 40.1822C215.224 40.1322 215.258 40.0875 215.299 40.0509C217.666 37.9668 220.666 36.7424 223.814 36.5756C223.823 36.5752 223.831 36.575 223.84 36.5751Z" fill="#D3DE32"/>
<path d="M219.648 70.038C219.642 70.5316 219.49 71.0124 219.212 71.4198C218.933 71.8271 218.54 72.1426 218.082 72.3263C217.624 72.5101 217.122 72.5539 216.639 72.4522C216.156 72.3505 215.715 72.1078 215.37 71.7549C215.025 71.402 214.792 70.9546 214.701 70.4695C214.61 69.9843 214.665 69.4831 214.859 69.0292C215.053 68.5753 215.377 68.1892 215.791 67.9196C216.204 67.65 216.688 67.509 217.181 67.5146C217.842 67.5227 218.474 67.793 218.936 68.2661C219.398 68.7392 219.654 69.3764 219.648 70.038Z" fill="#D3DE32"/>
<path d="M226.775 70.118C226.769 70.6116 226.617 71.0924 226.339 71.4997C226.06 71.907 225.667 72.2225 225.209 72.4063C224.751 72.5901 224.249 72.6339 223.766 72.5321C223.283 72.4304 222.842 72.1878 222.497 71.8349C222.152 71.4819 221.919 71.0346 221.828 70.5495C221.737 70.0643 221.792 69.5631 221.986 69.1092C222.18 68.6553 222.504 68.2692 222.918 67.9995C223.331 67.7299 223.815 67.589 224.308 67.5945C224.969 67.6027 225.601 67.873 226.063 68.346C226.525 68.8191 226.781 69.4564 226.775 70.118Z" fill="#006A71"/>
<path d="M233.902 70.1978C233.896 70.6914 233.744 71.1723 233.466 71.5796C233.187 71.9869 232.794 72.3024 232.336 72.4861C231.878 72.6699 231.376 72.7137 230.893 72.612C230.41 72.5103 229.969 72.2676 229.624 71.9147C229.279 71.5618 229.046 71.1144 228.955 70.6293C228.864 70.1441 228.919 69.6429 229.113 69.189C229.307 68.7351 229.631 68.349 230.045 68.0794C230.458 67.8098 230.942 67.6688 231.435 67.6744C232.096 67.6825 232.728 67.9528 233.19 68.4259C233.652 68.899 233.908 69.5362 233.902 70.1978Z" fill="#E6E6E6"/>
<path d="M252.647 83.855H194.805V128.063H252.647V83.855Z" fill="#F2F2F2"/>
<path d="M249.773 86.0518H197.68V125.867H249.773V86.0518Z" fill="white"/>
<path d="M206.518 99.1377C207.713 99.1377 208.681 98.1689 208.681 96.9738C208.681 95.7787 207.713 94.8099 206.518 94.8099C205.324 94.8099 204.355 95.7787 204.355 96.9738C204.355 98.1689 205.324 99.1377 206.518 99.1377Z" fill="#006A71"/>
<path d="M241.271 95.29C241.464 95.2896 241.655 95.3274 241.833 95.401C242.012 95.4746 242.173 95.5826 242.31 95.7189C242.446 95.8552 242.555 96.0171 242.629 96.1953C242.702 96.3735 242.74 96.5645 242.74 96.7574C242.74 96.9504 242.702 97.1414 242.629 97.3196C242.555 97.4978 242.446 97.6597 242.31 97.796C242.173 97.9323 242.012 98.0403 241.833 98.1139C241.655 98.1875 241.464 98.2253 241.271 98.2249H218.523C218.134 98.2249 217.76 98.0703 217.485 97.7951C217.21 97.5199 217.056 97.1466 217.056 96.7574C217.056 96.3682 217.21 95.995 217.485 95.7198C217.76 95.4446 218.134 95.29 218.523 95.29H241.271ZM241.271 94.9305H218.523C218.283 94.9302 218.045 94.9772 217.823 95.0688C217.601 95.1605 217.399 95.295 217.23 95.4647C217.06 95.6344 216.925 95.8359 216.833 96.0577C216.741 96.2795 216.694 96.5173 216.694 96.7574C216.694 96.9976 216.741 97.2354 216.833 97.4572C216.925 97.679 217.06 97.8805 217.23 98.0502C217.399 98.2199 217.601 98.3544 217.823 98.4461C218.045 98.5377 218.283 98.5847 218.523 98.5844H241.271C241.511 98.5847 241.749 98.5377 241.971 98.4461C242.193 98.3544 242.394 98.2199 242.564 98.0502C242.734 97.8805 242.869 97.679 242.961 97.4572C243.053 97.2354 243.1 96.9976 243.1 96.7574C243.1 96.5173 243.053 96.2795 242.961 96.0577C242.869 95.8359 242.734 95.6344 242.564 95.4647C242.394 95.295 242.193 95.1605 241.971 95.0688C241.749 94.9772 241.511 94.9302 241.271 94.9305Z" fill="#3F3D56"/>
<path d="M232.295 98.5844H215.17C214.686 98.5844 214.221 98.3919 213.879 98.0493C213.536 97.7066 213.344 97.242 213.344 96.7574C213.344 96.2729 213.536 95.8082 213.879 95.4656C214.221 95.123 214.686 94.9305 215.17 94.9305H232.295C232.779 94.9305 233.244 95.123 233.586 95.4656C233.929 95.8082 234.121 96.2729 234.121 96.7574C234.121 97.242 233.929 97.7066 233.586 98.0493C233.244 98.3919 232.779 98.5844 232.295 98.5844Z" fill="#D3DE32"/>
<path d="M206.518 108.123C207.713 108.123 208.681 107.154 208.681 105.959C208.681 104.764 207.713 103.795 206.518 103.795C205.324 103.795 204.355 104.764 204.355 105.959C204.355 107.154 205.324 108.123 206.518 108.123Z" fill="#006A71"/>
<path d="M241.271 104.275C241.464 104.275 241.655 104.313 241.833 104.386C242.012 104.46 242.173 104.568 242.31 104.704C242.446 104.841 242.555 105.002 242.629 105.181C242.702 105.359 242.74 105.55 242.74 105.743C242.74 105.936 242.702 106.127 242.629 106.305C242.555 106.483 242.446 106.645 242.31 106.781C242.173 106.918 242.012 107.026 241.833 107.099C241.655 107.173 241.464 107.211 241.271 107.21H218.523C218.134 107.21 217.76 107.056 217.485 106.78C217.21 106.505 217.056 106.132 217.056 105.743C217.056 105.354 217.21 104.98 217.485 104.705C217.76 104.43 218.134 104.275 218.523 104.275H241.271ZM241.271 103.916H218.523C218.038 103.916 217.574 104.108 217.231 104.451C216.889 104.794 216.696 105.258 216.696 105.743C216.696 106.227 216.889 106.692 217.231 107.035C217.574 107.377 218.038 107.57 218.523 107.57H241.271C241.755 107.57 242.22 107.377 242.562 107.035C242.905 106.692 243.097 106.227 243.097 105.743C243.097 105.258 242.905 104.794 242.562 104.451C242.22 104.108 241.755 103.916 241.271 103.916Z" fill="#3F3D56"/>
<path d="M238.762 107.57H215.17C214.686 107.57 214.221 107.377 213.879 107.035C213.536 106.692 213.344 106.227 213.344 105.743C213.344 105.258 213.536 104.794 213.879 104.451C214.221 104.108 214.686 103.916 215.17 103.916H238.762C239.246 103.916 239.711 104.108 240.053 104.451C240.395 104.794 240.588 105.258 240.588 105.743C240.588 106.227 240.395 106.692 240.053 107.035C239.711 107.377 239.246 107.57 238.762 107.57Z" fill="#D3DE32"/>
<path d="M206.518 117.108C207.713 117.108 208.681 116.14 208.681 114.945C208.681 113.749 207.713 112.781 206.518 112.781C205.324 112.781 204.355 113.749 204.355 114.945C204.355 116.14 205.324 117.108 206.518 117.108Z" fill="#006A71"/>
<path d="M241.271 113.261C241.464 113.26 241.655 113.298 241.833 113.372C242.012 113.445 242.173 113.553 242.31 113.69C242.446 113.826 242.555 113.988 242.629 114.166C242.702 114.344 242.74 114.535 242.74 114.728C242.74 114.921 242.702 115.112 242.629 115.29C242.555 115.469 242.446 115.631 242.31 115.767C242.173 115.903 242.012 116.011 241.833 116.085C241.655 116.158 241.464 116.196 241.271 116.196H218.523C218.134 116.196 217.76 116.041 217.485 115.766C217.21 115.491 217.056 115.117 217.056 114.728C217.056 114.339 217.21 113.966 217.485 113.691C217.76 113.415 218.134 113.261 218.523 113.261H241.271ZM241.271 112.901H218.523C218.038 112.901 217.574 113.094 217.231 113.436C216.889 113.779 216.696 114.244 216.696 114.728C216.696 115.213 216.889 115.677 217.231 116.02C217.574 116.363 218.038 116.555 218.523 116.555H241.271C241.755 116.555 242.22 116.363 242.562 116.02C242.905 115.677 243.097 115.213 243.097 114.728C243.097 114.244 242.905 113.779 242.562 113.436C242.22 113.094 241.755 112.901 241.271 112.901Z" fill="#3F3D56"/>
<path d="M224.75 116.555H215.17C214.93 116.556 214.692 116.509 214.47 116.417C214.249 116.325 214.047 116.191 213.877 116.021C213.707 115.851 213.572 115.65 213.48 115.428C213.389 115.206 213.341 114.968 213.341 114.728C213.341 114.488 213.389 114.25 213.48 114.029C213.572 113.807 213.707 113.605 213.877 113.436C214.047 113.266 214.249 113.131 214.47 113.04C214.692 112.948 214.93 112.901 215.17 112.901H224.75C225.234 112.902 225.698 113.095 226.04 113.437C226.382 113.78 226.574 114.244 226.574 114.728C226.574 115.212 226.382 115.677 226.04 116.019C225.698 116.362 225.234 116.554 224.75 116.555Z" fill="#D3DE32"/>
<path d="M182.019 40.5106H20.42V123.365H182.019V40.5106Z" fill="#F2F2F2"/>
<path d="M176.633 44.6276H25.8067V119.248H176.633V44.6276Z" fill="white"/>
<path d="M157.927 107.864H47.9779C47.8866 107.864 47.7991 107.828 47.7345 107.764C47.67 107.699 47.6338 107.611 47.6338 107.52V54.7991C47.6338 54.7078 47.67 54.6202 47.7345 54.5557C47.7991 54.4911 47.8866 54.4548 47.9779 54.4548C48.0691 54.4548 48.1566 54.4911 48.2212 54.5557C48.2857 54.6202 48.3219 54.7078 48.3219 54.7991V107.176H157.927C158.018 107.176 158.106 107.212 158.171 107.277C158.235 107.341 158.271 107.429 158.271 107.52C158.271 107.611 158.235 107.699 158.171 107.764C158.106 107.828 158.018 107.864 157.927 107.864Z" fill="#006A71"/>
<path d="M71.4692 104.078H61.4689C61.1981 104.077 60.9385 103.97 60.747 103.778C60.5555 103.587 60.4478 103.327 60.4475 103.056V89.2646C60.4478 88.9937 60.5555 88.734 60.747 88.5424C60.9385 88.3509 61.1981 88.2431 61.4689 88.2428H71.4692C71.74 88.2431 71.9996 88.3509 72.1911 88.5424C72.3826 88.734 72.4903 88.9937 72.4907 89.2646V103.056C72.4903 103.327 72.3826 103.587 72.1911 103.778C71.9996 103.97 71.74 104.077 71.4692 104.078Z" fill="#D3DE32"/>
<path d="M89.7061 104.078H79.7058C79.435 104.077 79.1753 103.97 78.9839 103.778C78.7924 103.587 78.6846 103.327 78.6843 103.056V76.1835C78.6846 75.9126 78.7924 75.6529 78.9839 75.4614C79.1753 75.2698 79.435 75.162 79.7058 75.1617H89.7061C89.9769 75.162 90.2365 75.2698 90.428 75.4614C90.6195 75.6529 90.7272 75.9126 90.7275 76.1835V103.056C90.7272 103.327 90.6195 103.587 90.428 103.778C90.2365 103.97 89.9769 104.077 89.7061 104.078Z" fill="#D3DE32"/>
<path d="M107.943 104.078H97.9426C97.6718 104.077 97.4122 103.97 97.2207 103.778C97.0292 103.587 96.9215 103.327 96.9211 103.056V89.2646C96.9215 88.9937 97.0292 88.734 97.2207 88.5424C97.4122 88.3509 97.6718 88.2431 97.9426 88.2428H107.943C108.214 88.2431 108.473 88.3508 108.665 88.5424C108.856 88.7339 108.964 88.9937 108.964 89.2646V103.056C108.964 103.327 108.856 103.587 108.665 103.778C108.473 103.97 108.214 104.077 107.943 104.078Z" fill="#D3DE32"/>
<path d="M126.18 104.078H116.179C115.915 104.083 115.659 103.984 115.467 103.801C115.276 103.618 115.165 103.367 115.158 103.102V70.9737C115.165 70.7089 115.276 70.4576 115.467 70.2748C115.659 70.0919 115.915 69.9925 116.179 69.9982H126.18C126.444 69.9925 126.7 70.0919 126.892 70.2748C127.083 70.4576 127.195 70.7089 127.201 70.9737V103.102C127.195 103.367 127.083 103.618 126.892 103.801C126.7 103.984 126.444 104.083 126.18 104.078Z" fill="#D3DE32"/>
<path d="M144.417 104.078H134.416C134.145 104.077 133.886 103.97 133.694 103.778C133.503 103.586 133.395 103.327 133.395 103.056V61.7255C133.395 61.4546 133.503 61.1949 133.694 61.0033C133.886 60.8118 134.145 60.704 134.416 60.7037H144.417C144.687 60.704 144.947 60.8118 145.138 61.0033C145.33 61.1949 145.438 61.4546 145.438 61.7255V103.056C145.438 103.327 145.33 103.586 145.138 103.778C144.947 103.97 144.687 104.077 144.417 104.078Z" fill="#D3DE32"/>
<path d="M66.4691 84.1119C67.6093 84.1119 68.5336 83.1872 68.5336 82.0465C68.5336 80.9058 67.6093 79.9811 66.4691 79.9811C65.3288 79.9811 64.4045 80.9058 64.4045 82.0465C64.4045 83.1872 65.3288 84.1119 66.4691 84.1119Z" fill="#006A71"/>
<path d="M84.7059 70.6867C85.8461 70.6867 86.7705 69.7619 86.7705 68.6212C86.7705 67.4805 85.8461 66.5558 84.7059 66.5558C83.5657 66.5558 82.6414 67.4805 82.6414 68.6212C82.6414 69.7619 83.5657 70.6867 84.7059 70.6867Z" fill="#006A71"/>
<path d="M102.943 84.1119C104.083 84.1119 105.007 83.1872 105.007 82.0465C105.007 80.9058 104.083 79.9811 102.943 79.9811C101.803 79.9811 100.878 80.9058 100.878 82.0465C100.878 83.1872 101.803 84.1119 102.943 84.1119Z" fill="#006A71"/>
<path d="M121.18 64.1462C122.32 64.1462 123.244 63.2215 123.244 62.0808C123.244 60.9401 122.32 60.0154 121.18 60.0154C120.039 60.0154 119.115 60.9401 119.115 62.0808C119.115 63.2215 120.039 64.1462 121.18 64.1462Z" fill="#006A71"/>
<path d="M139.416 56.573C140.557 56.573 141.481 55.6483 141.481 54.5076C141.481 53.3669 140.557 52.4421 139.416 52.4421C138.276 52.4421 137.352 53.3669 137.352 54.5076C137.352 55.6483 138.276 56.573 139.416 56.573Z" fill="#006A71"/>
<path d="M102.986 82.5092L84.706 68.8112L66.6753 82.322L66.2628 81.7712L84.706 67.9508L102.899 81.5837L120.979 61.7909L121.051 61.7613L139.288 54.4105L139.545 55.0491L121.381 62.3707L102.986 82.5092Z" fill="#006A71"/>
<path d="M375.601 252H223.613C223.507 252 223.406 251.958 223.331 251.883C223.256 251.808 223.214 251.707 223.214 251.601C223.214 251.495 223.256 251.394 223.331 251.319C223.406 251.244 223.507 251.202 223.613 251.202H375.601C375.707 251.202 375.808 251.244 375.883 251.319C375.958 251.394 376 251.495 376 251.601C376 251.707 375.958 251.808 375.883 251.883C375.808 251.958 375.707 252 375.601 252Z" fill="#CCCCCC"/>
</g>
<defs>
<clipPath id="clip0_20_123">
<rect width="376" height="252" fill="white"/>
</clipPath>
</defs>
</svg>
