<svg width="135" height="117" viewBox="0 0 135 117" fill="none" xmlns="http://www.w3.org/2000/svg">
<path d="M100.973 0.61853H34.025L0.551163 58.6309L34.025 116.643H100.973L134.447 58.6309L100.973 0.61853Z" fill="#D3DE32"/>
<path d="M39.6289 106.931H95.3688L123.239 58.6309L95.3688 10.3304H39.6289L11.7588 58.6309L39.6289 106.931Z" fill="white"/>
<path d="M46.7002 10.2587H45.975V40.2117H46.7002V10.2587Z" fill="#3F3D56"/>
<path d="M46.3376 43.9987C47.4778 43.9987 48.4021 43.0739 48.4021 41.933C48.4021 40.7922 47.4778 39.8673 46.3376 39.8673C45.1974 39.8673 44.2731 40.7922 44.2731 41.933C44.2731 43.0739 45.1974 43.9987 46.3376 43.9987Z" fill="#D3DE32"/>
<path d="M62.184 10.2587H61.4588V40.2117H62.184V10.2587Z" fill="#3F3D56"/>
<path d="M61.8215 43.9987C62.9617 43.9987 63.886 43.0739 63.886 41.933C63.886 40.7922 62.9617 39.8673 61.8215 39.8673C60.6813 39.8673 59.7569 40.7922 59.7569 41.933C59.7569 43.0739 60.6813 43.9987 61.8215 43.9987Z" fill="#006A71"/>
<path d="M89.3668 10.2587H88.6416V40.2117H89.3668V10.2587Z" fill="#3F3D56"/>
<path d="M89.0042 43.9987C90.1444 43.9987 91.0688 43.0739 91.0688 41.933C91.0688 40.7922 90.1444 39.8673 89.0042 39.8673C87.864 39.8673 86.9397 40.7922 86.9397 41.933C86.9397 43.0739 87.864 43.9987 89.0042 43.9987Z" fill="#006A71"/>
<path d="M77.6494 73.6073C78.7896 73.6073 79.7139 72.6824 79.7139 71.5415C79.7139 70.4007 78.7896 69.4758 77.6494 69.4758C76.5092 69.4758 75.5849 70.4007 75.5849 71.5415C75.5849 72.6824 76.5092 73.6073 77.6494 73.6073Z" fill="#006A71"/>
<path d="M35.671 54.6717C36.8112 54.6717 37.7355 53.7469 37.7355 52.606C37.7355 51.4651 36.8112 50.5403 35.671 50.5403C34.5308 50.5403 33.6064 51.4651 33.6064 52.606C33.6064 53.7469 34.5308 54.6717 35.671 54.6717Z" fill="#006A71"/>
<path d="M78.0121 69.82H77.2869V33.7266H61.8214V33.001H78.0121V69.82Z" fill="#3F3D56"/>
<path d="M51.1548 86.6903C52.295 86.6903 53.2193 85.7654 53.2193 84.6246C53.2193 83.4837 52.295 82.5588 51.1548 82.5588C50.0146 82.5588 49.0903 83.4837 49.0903 84.6246C49.0903 85.7654 50.0146 86.6903 51.1548 86.6903Z" fill="#D3DE32"/>
<path d="M51.5174 82.9031H50.7922V46.8094H35.3268V46.0837H51.5174V82.9031Z" fill="#3F3D56"/>
<path d="M98.9827 70.5089C100.123 70.5089 101.047 69.584 101.047 68.4431C101.047 67.3023 100.123 66.3774 98.9827 66.3774C97.8425 66.3774 96.9182 67.3023 96.9182 68.4431C96.9182 69.584 97.8425 70.5089 98.9827 70.5089Z" fill="#D3DE32"/>
<path d="M99.3453 66.7216H98.6201V30.6282H88.6602V29.9026H99.3453V66.7216Z" fill="#3F3D56"/>
<path d="M36.0335 50.5399H35.3083V32.5942H46.3375V33.3199H36.0335V50.5399Z" fill="#3F3D56"/>
<path d="M61.9935 94.7811C63.1337 94.7811 64.058 93.8563 64.058 92.7154C64.058 91.5745 63.1337 90.6497 61.9935 90.6497C60.8533 90.6497 59.929 91.5745 59.929 92.7154C59.929 93.8563 60.8533 94.7811 61.9935 94.7811Z" fill="#006A71"/>
<path d="M62.3559 90.6495H61.6307V73.4295H51.3267V72.7039H62.3559V90.6495Z" fill="#3F3D56"/>
<path d="M88.316 79.4603C89.4563 79.4603 90.3806 78.5354 90.3806 77.3946C90.3806 76.2537 89.4563 75.3289 88.316 75.3289C87.1758 75.3289 86.2515 76.2537 86.2515 77.3946C86.2515 78.5354 87.1758 79.4603 88.316 79.4603Z" fill="#006A71"/>
<path d="M88.6787 79.3287H87.9535V61.3831H98.9827V62.1087H88.6787V79.3287Z" fill="#3F3D56"/>
</svg>
