<svg width="376" height="189" viewBox="0 0 376 189" fill="none" xmlns="http://www.w3.org/2000/svg">
<path d="M376 10.3049H0.160263V188.666H376V10.3049Z" fill="#E5E5E5"/>
<path d="M365.253 25.5999H10.9075V174.412H365.253V25.5999Z" fill="white"/>
<path d="M375.84 0H0V15.9685H375.84V0Z" fill="#D3DE32"/>
<path d="M11.8653 10.9144C13.4997 10.9144 14.8247 9.58929 14.8247 7.95469C14.8247 6.3201 13.4997 4.995 11.8653 4.995C10.2309 4.995 8.90591 6.3201 8.90591 7.95469C8.90591 9.58929 10.2309 10.9144 11.8653 10.9144Z" fill="white"/>
<path d="M23.0982 10.9144C24.7326 10.9144 26.0575 9.58929 26.0575 7.95469C26.0575 6.3201 24.7326 4.995 23.0982 4.995C21.4637 4.995 20.1388 6.3201 20.1388 7.95469C20.1388 9.58929 21.4637 10.9144 23.0982 10.9144Z" fill="white"/>
<path d="M34.3315 10.9144C35.966 10.9144 37.2909 9.58929 37.2909 7.95469C37.2909 6.3201 35.966 4.995 34.3315 4.995C32.6971 4.995 31.3721 6.3201 31.3721 7.95469C31.3721 9.58929 32.6971 10.9144 34.3315 10.9144Z" fill="white"/>
<path d="M68.9612 59.4769C68.5743 59.4769 68.2031 59.6307 67.9295 59.9043C67.6559 60.178 67.5022 60.5491 67.5022 60.9361C67.5022 61.3231 67.6559 61.6943 67.9295 61.9679C68.2031 62.2416 68.5743 62.3953 68.9612 62.3953H108.827C109.214 62.3953 109.586 62.2416 109.859 61.9679C110.133 61.6943 110.287 61.3231 110.287 60.9361C110.287 60.5491 110.133 60.178 109.859 59.9043C109.586 59.6307 109.214 59.4769 108.827 59.4769H68.9612Z" fill="#006A71"/>
<path d="M46.4147 79.5699C46.0277 79.5699 45.6566 79.7237 45.383 79.9973C45.1094 80.271 44.9557 80.6421 44.9557 81.0292C44.9557 81.4162 45.1094 81.7873 45.383 82.061C45.6566 82.3346 46.0277 82.4883 46.4147 82.4883H131.374C131.761 82.4883 132.132 82.3346 132.406 82.061C132.679 81.7873 132.833 81.4162 132.833 81.0292C132.833 80.6421 132.679 80.271 132.406 79.9973C132.132 79.7237 131.761 79.5699 131.374 79.5699H46.4147Z" fill="#CCCCCC"/>
<path d="M46.4147 91.1793C46.0277 91.1793 45.6566 91.3331 45.383 91.6067C45.1094 91.8804 44.9557 92.2515 44.9557 92.6385C44.9557 93.0255 45.1094 93.3967 45.383 93.6703C45.6566 93.944 46.0277 94.0977 46.4147 94.0977H131.374C131.761 94.0977 132.132 93.944 132.406 93.6703C132.679 93.3967 132.833 93.0255 132.833 92.6385C132.833 92.2515 132.679 91.8804 132.406 91.6067C132.132 91.3331 131.761 91.1793 131.374 91.1793H46.4147Z" fill="#CCCCCC"/>
<path d="M46.4147 102.789C46.0277 102.789 45.6566 102.942 45.383 103.216C45.1094 103.49 44.9557 103.861 44.9557 104.248C44.9557 104.635 45.1094 105.006 45.383 105.28C45.6566 105.553 46.0277 105.707 46.4147 105.707H131.374C131.761 105.707 132.132 105.553 132.406 105.28C132.679 105.006 132.833 104.635 132.833 104.248C132.833 103.861 132.679 103.49 132.406 103.216C132.132 102.942 131.761 102.789 131.374 102.789H46.4147Z" fill="#CCCCCC"/>
<path d="M46.4147 114.398C46.0277 114.398 45.6566 114.552 45.383 114.825C45.1094 115.099 44.9557 115.47 44.9557 115.857C44.9557 116.244 45.1094 116.615 45.383 116.889C45.6566 117.163 46.0277 117.316 46.4147 117.316H131.374C131.761 117.316 132.132 117.163 132.406 116.889C132.679 116.615 132.833 116.244 132.833 115.857C132.833 115.47 132.679 115.099 132.406 114.825C132.132 114.552 131.761 114.398 131.374 114.398H46.4147Z" fill="#CCCCCC"/>
<path d="M46.4147 126.007C46.0277 126.007 45.6566 126.161 45.383 126.435C45.1094 126.708 44.9557 127.08 44.9557 127.467C44.9557 127.854 45.1094 128.225 45.383 128.498C45.6566 128.772 46.0277 128.926 46.4147 128.926H131.374C131.761 128.926 132.132 128.772 132.406 128.498C132.679 128.225 132.833 127.854 132.833 127.467C132.833 127.08 132.679 126.708 132.406 126.435C132.132 126.161 131.761 126.007 131.374 126.007H46.4147Z" fill="#CCCCCC"/>
<path d="M46.4147 137.617C46.0277 137.617 45.6566 137.77 45.383 138.044C45.1094 138.318 44.9557 138.689 44.9557 139.076C44.9557 139.463 45.1094 139.834 45.383 140.108C45.6566 140.381 46.0277 140.535 46.4147 140.535H131.374C131.761 140.535 132.132 140.381 132.406 140.108C132.679 139.834 132.833 139.463 132.833 139.076C132.833 138.689 132.679 138.318 132.406 138.044C132.132 137.77 131.761 137.617 131.374 137.617H46.4147Z" fill="#CCCCCC"/>
<path d="M326.683 141.16H198.055C197.195 141.159 196.371 140.817 195.763 140.209C195.155 139.601 194.813 138.777 194.812 137.917V62.2451C194.813 61.3853 195.155 60.561 195.763 59.953C196.371 59.345 197.195 59.003 198.055 59.0021H326.683C327.543 59.003 328.367 59.345 328.975 59.953C329.583 60.561 329.925 61.3853 329.926 62.2451V137.917C329.925 138.777 329.583 139.601 328.975 140.209C328.367 140.817 327.543 141.159 326.683 141.16Z" fill="#F1F1F1"/>
<path d="M343.604 158.468H214.976C214.117 158.467 213.292 158.125 212.684 157.517C212.076 156.909 211.734 156.084 211.734 155.224V79.5529C211.735 78.6931 212.076 77.8687 212.684 77.2607C213.292 76.6527 214.117 76.3107 214.976 76.3098H343.604C344.464 76.3107 345.288 76.6527 345.896 77.2607C346.504 77.8687 346.846 78.6931 346.847 79.5529V155.224C346.846 156.084 346.504 156.909 345.896 157.517C345.288 158.125 344.464 158.467 343.604 158.468Z" fill="white"/>
<path d="M343.604 159.571H214.976C213.824 159.57 212.719 159.111 211.905 158.297C211.09 157.482 210.631 156.377 210.63 155.224V79.553C210.631 78.4006 211.09 77.2958 211.905 76.4809C212.719 75.666 213.824 75.2076 214.976 75.2063H343.604C344.757 75.2076 345.861 75.666 346.676 76.4809C347.491 77.2958 347.949 78.4006 347.95 79.553V155.224C347.949 156.377 347.491 157.482 346.676 158.297C345.861 159.111 344.757 159.57 343.604 159.571ZM214.976 77.4135C214.409 77.4141 213.865 77.6397 213.464 78.0409C213.063 78.442 212.838 78.9858 212.837 79.553V155.224C212.838 155.792 213.063 156.335 213.464 156.737C213.865 157.138 214.409 157.363 214.976 157.364H343.604C344.171 157.363 344.715 157.138 345.116 156.737C345.517 156.335 345.743 155.792 345.744 155.224V79.553C345.743 78.9858 345.517 78.442 345.116 78.0408C344.715 77.6397 344.171 77.4141 343.604 77.4135H214.976Z" fill="#006A71"/>
<path d="M279.117 138.611C285.281 138.611 290.279 133.613 290.279 127.448C290.279 121.283 285.281 116.286 279.117 116.286C272.953 116.286 267.955 121.283 267.955 127.448C267.955 133.613 272.953 138.611 279.117 138.611Z" fill="#006A71"/>
</svg>
