<svg width="31" height="31" viewBox="0 0 31 31" fill="none" xmlns="http://www.w3.org/2000/svg">
<g clip-path="url(#clip0_26_367)">
<path d="M22.292 0.884277H8.49661C4.00677 0.884277 0.354126 4.53692 0.354126 9.02676V22.8224C0.354126 27.312 4.00677 30.9647 8.49661 30.9647H22.2923C26.7819 30.9647 30.4345 27.312 30.4345 22.8224V9.02676C30.4345 4.53692 26.7819 0.884277 22.292 0.884277V0.884277ZM28.6711 22.8224C28.6711 26.3396 25.8095 29.2012 22.292 29.2012H8.49661C4.97914 29.2012 2.11757 26.3396 2.11757 22.8224V9.02676C2.11757 5.50929 4.97914 2.64772 8.49661 2.64772H22.2923C25.8095 2.64772 28.6711 5.50929 28.6711 9.02676V22.8224Z" fill="white"/>
<path d="M15.3943 7.69971C10.859 7.69971 7.16943 11.3893 7.16943 15.9246C7.16943 20.4599 10.859 24.1495 15.3943 24.1495C19.9296 24.1495 23.6192 20.4599 23.6192 15.9246C23.6192 11.3893 19.9296 7.69971 15.3943 7.69971ZM15.3943 22.386C11.8316 22.386 8.93287 19.4875 8.93287 15.9246C8.93287 12.3619 11.8316 9.46315 15.3943 9.46315C18.9572 9.46315 21.8557 12.3619 21.8557 15.9246C21.8557 19.4875 18.9572 22.386 15.3943 22.386Z" fill="white"/>
<path d="M23.8158 4.77832C22.4756 4.77832 21.3855 5.86865 21.3855 7.20867C21.3855 8.54892 22.4756 9.63925 23.8158 9.63925C25.1561 9.63925 26.2464 8.54892 26.2464 7.20867C26.2464 5.86842 25.1561 4.77832 23.8158 4.77832ZM23.8158 7.87559C23.4482 7.87559 23.1489 7.57632 23.1489 7.20867C23.1489 6.84079 23.4482 6.54176 23.8158 6.54176C24.1837 6.54176 24.483 6.84079 24.483 7.20867C24.483 7.57632 24.1837 7.87559 23.8158 7.87559Z" fill="white"/>
</g>
<defs>
<clipPath id="clip0_26_367">
<rect width="30.0804" height="30.0804" fill="white" transform="translate(0.354126 0.884277)"/>
</clipPath>
</defs>
</svg>
