<svg width="31" height="31" viewBox="0 0 31 31" fill="none" xmlns="http://www.w3.org/2000/svg">
<g clip-path="url(#clip0_26_376)">
<path d="M8.3157 9.7915H3.24476C2.6763 9.7915 2.21387 10.2539 2.21387 10.8224V29.9332C2.21387 30.5014 2.6763 30.9638 3.24476 30.9638H8.3157C8.88394 30.9638 9.34637 30.5014 9.34637 29.9332V10.8224C9.34637 10.2539 8.88394 9.7915 8.3157 9.7915ZM7.58132 29.1988H3.97892V11.5566H7.58132V29.1988Z" fill="white"/>
<path d="M5.78025 0.883301C3.79741 0.883301 2.18451 2.49619 2.18451 4.47881C2.18451 6.46165 3.79741 8.07454 5.78025 8.07454C7.76264 8.07454 9.37576 6.46165 9.37576 4.47881C9.37576 2.49619 7.76287 0.883301 5.78025 0.883301ZM5.78025 6.30949C4.7707 6.30949 3.94956 5.48836 3.94956 4.47881C3.94956 3.46949 4.7707 2.64835 5.78025 2.64835C6.78957 2.64835 7.61071 3.46949 7.61071 4.47881C7.61071 5.48813 6.78957 6.30949 5.78025 6.30949Z" fill="white"/>
<path d="M25.7464 12.0318C24.5342 11.02 22.9931 10.4788 21.4087 10.5082C20.4246 10.5263 19.463 10.7636 18.5916 11.1933V10.776C18.5916 10.2324 18.1508 9.7915 17.6071 9.7915H12.4439C11.9002 9.7915 11.4594 10.2324 11.4594 10.776V29.9791C11.4594 30.523 11.9002 30.9636 12.4439 30.9636H17.709C18.1964 30.9636 18.5916 30.5684 18.5916 30.0812V18.6319C18.5916 17.6517 19.3586 16.8223 20.3381 16.7932C21.3561 16.7631 22.1938 17.5822 22.1938 18.5936V30.0996C22.1938 30.5767 22.5807 30.9636 23.0578 30.9636H28.118C28.5951 30.9636 28.982 30.5767 28.982 30.0996V18.9436C28.982 16.2676 27.8027 13.7482 25.7464 12.0318ZM27.217 29.1986H23.9591V18.5936C23.9591 16.6273 22.3593 15.0274 20.3927 15.0274C18.4264 15.0274 16.8266 16.6273 16.8266 18.5936V29.1986H13.2244V11.5563H16.8266V12.839H16.8277C16.8275 13.0469 16.8998 13.2557 17.0485 13.424C17.3714 13.7889 17.9293 13.8228 18.2942 13.4997C19.1638 12.73 20.2814 12.2944 21.4413 12.2728C22.6023 12.2508 23.7291 12.6469 24.6154 13.3868C26.2689 14.767 27.217 16.7923 27.217 18.9436V29.1986Z" fill="white"/>
</g>
<defs>
<clipPath id="clip0_26_376">
<rect width="30.0805" height="30.0805" fill="white" transform="translate(0.53949 0.883301)"/>
</clipPath>
</defs>
</svg>
