<svg width="31" height="31" viewBox="0 0 31 31" fill="none" xmlns="http://www.w3.org/2000/svg">
<g clip-path="url(#clip0_26_373)">
<path d="M25.8751 5.15583C23.1198 2.4005 19.4573 0.883301 15.5604 0.883301C15.5602 0.883301 15.5593 0.883301 15.559 0.883301C13.6317 0.88353 11.7535 1.25669 9.97701 1.99268C8.20025 2.72868 6.60847 3.79285 5.24549 5.15583C2.49039 7.91092 0.973192 11.5741 0.973192 15.4705C0.973192 17.7942 1.53385 20.1034 2.59619 22.1608L0.144253 29.1655C-0.0285577 29.6596 0.0937636 30.1966 0.46417 30.5668C0.723271 30.8261 1.0643 30.9638 1.41497 30.9638C1.56529 30.9638 1.71722 30.9385 1.86547 30.8867L8.87015 28.435C10.9276 29.4973 13.2368 30.058 15.5604 30.058C19.4568 30.058 23.1198 28.5405 25.8751 25.7854C28.6302 23.0303 30.1476 19.3671 30.1476 15.4707C30.1476 11.5741 28.6304 7.91092 25.8751 5.15583ZM24.6276 24.5379C22.2057 26.96 18.9854 28.2936 15.5604 28.2936C13.4651 28.2936 11.3836 27.7754 9.54074 26.7945C9.20659 26.6169 8.81163 26.5864 8.45706 26.7105L2.09313 28.9378L4.32062 22.5739C4.44478 22.2188 4.41403 21.8239 4.2364 21.49C3.25576 19.6476 2.73733 17.566 2.73733 15.4705C2.73733 12.0455 4.07116 8.82524 6.49303 6.40337C8.91467 3.98172 12.1345 2.64789 15.5593 2.64744H15.5604C18.9856 2.64744 22.2057 3.98127 24.6276 6.40337C27.0497 8.82524 28.3835 12.0453 28.3835 15.4705C28.3835 18.8957 27.0497 22.116 24.6276 24.5379Z" fill="white"/>
<path d="M20.9816 16.7737C20.3106 16.1026 19.2187 16.1026 18.5476 16.7737L17.8137 17.5076C15.9913 16.5146 14.5165 15.0398 13.5233 13.2174L14.2572 12.4835C14.9285 11.8124 14.9285 10.7205 14.2572 10.0494L12.2794 8.07164C11.6083 7.4006 10.5164 7.4006 9.84535 8.07164L8.26321 9.65379C7.35693 10.5601 7.31172 12.1181 8.13584 14.0411C8.85141 15.7106 10.1609 17.5457 11.8232 19.2079C13.4854 20.8702 15.3204 22.1797 16.99 22.8952C17.9036 23.2868 18.7347 23.4821 19.4527 23.4821C20.2461 23.4821 20.9016 23.2436 21.3773 22.7679L22.9594 21.1855V21.1857C23.2846 20.8605 23.4636 20.4284 23.4636 19.9687C23.4636 19.5088 23.2846 19.0767 22.9594 18.7517L20.9816 16.7737ZM20.1298 21.5203C19.8711 21.779 19.0757 21.8696 17.6852 21.2739C16.2169 20.6446 14.578 19.4677 13.0707 17.9604C11.5634 16.4531 10.3867 14.8145 9.75746 13.3461C9.16146 11.9556 9.25211 11.16 9.51075 10.9013L11.0626 9.34948L12.9794 11.2665L12.0607 12.1854C11.6453 12.6007 11.545 13.2307 11.8114 13.753C13.0193 16.1214 14.9096 18.0118 17.278 19.2196C17.8006 19.4861 18.4306 19.386 18.846 18.9704L19.7646 18.0517L21.6816 19.9687L20.1298 21.5203Z" fill="white"/>
</g>
<defs>
<clipPath id="clip0_26_373">
<rect width="30.0805" height="30.0805" fill="white" transform="translate(0.0671997 0.883301)"/>
</clipPath>
</defs>
</svg>
