<svg width="339" height="274" viewBox="0 0 339 274" fill="none" xmlns="http://www.w3.org/2000/svg">
<path d="M223.062 153.408C215.91 157.701 203.169 163.08 190.149 157.552L181.732 153.978L198.598 135.053C185.139 120.198 177.693 100.857 177.714 80.8028C177.734 60.749 185.22 41.4225 198.709 26.5957C212.199 11.7688 230.724 2.50584 250.669 0.614735C270.614 -1.27637 290.547 4.34014 306.578 16.368C322.608 28.3958 333.586 45.9717 337.368 65.665C341.15 85.3583 337.464 105.756 327.031 122.875C316.598 139.995 300.165 152.609 280.941 158.254C261.717 163.9 241.081 162.172 223.062 153.408V153.408ZM190.746 80.7576C190.709 90.002 192.583 99.154 196.251 107.638C199.919 116.122 205.301 123.755 212.059 130.056L216.711 134.432L206.098 146.341C211.626 145.218 216.441 142.225 218.882 140.486L222.232 138.1L225.835 140.082C235.795 145.54 246.967 148.4 258.321 148.399C295.582 148.399 325.897 118.055 325.897 80.7576C325.897 43.46 295.582 13.1161 258.321 13.1161C221.06 13.1161 190.746 43.46 190.746 80.7576V80.7576Z" fill="#006A71"/>
<path d="M184.194 80.7577C184.194 39.7784 217.382 6.55811 258.321 6.55811C299.261 6.55811 332.448 39.7784 332.448 80.7577C332.448 121.737 299.261 154.957 258.321 154.957C245.862 154.976 233.6 151.835 222.681 145.83C217.556 149.479 205.056 156.758 192.707 151.515L207.572 134.835C200.183 127.905 194.295 119.529 190.273 110.226C186.252 100.924 184.183 90.8937 184.194 80.7577Z" fill="#D3DE32"/>
<path opacity="0.1" d="M319.82 80.9184C319.82 42.1496 290.115 10.3311 252.245 7.01063C254.404 6.82131 256.588 6.71887 258.797 6.71887C299.736 6.71887 332.924 39.9391 332.924 80.9184C332.924 121.898 299.736 155.118 258.797 155.118C256.592 155.118 254.411 155.014 252.255 154.825C290.12 151.5 319.82 119.684 319.82 80.9184Z" fill="black"/>
<path d="M87.5038 256.487C68.9817 256.495 51.0195 250.131 36.6274 238.461C22.2352 226.791 12.2877 210.523 8.45203 192.385C4.61632 174.247 7.12547 155.34 15.559 138.833C23.9925 122.326 37.8378 109.223 54.7747 101.718C71.7116 94.2138 90.7107 92.7645 108.588 97.6134C126.465 102.462 142.135 113.314 152.97 128.351C163.805 143.388 169.147 161.696 168.101 180.207C167.056 198.717 159.686 216.306 147.227 230.024L164.093 248.95L155.676 252.523C142.656 258.052 129.915 252.672 122.763 248.379C111.773 253.712 99.7178 256.484 87.5038 256.487ZM87.5038 108.088C50.2426 108.088 19.9284 138.432 19.9284 175.729C19.9284 213.027 50.2426 243.371 87.5038 243.371C98.8583 243.372 110.03 240.511 119.99 235.053L123.593 233.071L126.943 235.457C129.384 237.196 134.199 240.19 139.728 241.312L129.114 229.404L133.767 225.028C140.524 218.726 145.906 211.094 149.574 202.61C153.242 194.126 155.116 184.973 155.079 175.729C155.079 138.432 124.765 108.088 87.5038 108.088Z" fill="#006A71"/>
<path d="M161.631 175.729C161.631 134.75 128.443 101.529 87.5037 101.529C46.5645 101.529 13.3767 134.75 13.3767 175.729C13.3767 216.708 46.5645 249.929 87.5037 249.929C99.9633 249.947 112.225 246.807 123.145 240.801C128.269 244.45 140.769 251.729 153.118 246.486L138.253 229.807C145.643 222.876 151.531 214.5 155.552 205.198C159.573 195.895 161.642 185.865 161.631 175.729Z" fill="#D3DE32"/>
<path opacity="0.1" d="M26.48 175.354C26.48 136.585 56.1856 104.767 94.0553 101.446C91.8961 101.257 89.712 101.155 87.5037 101.155C46.5645 101.155 13.3767 134.375 13.3767 175.354C13.3767 216.334 46.5645 249.554 87.5037 249.554C89.7087 249.554 91.889 249.45 94.045 249.261C56.1802 245.936 26.48 214.119 26.48 175.354Z" fill="black"/>
<path d="M275.723 57.1845C270.873 48.9815 261.278 48.5992 261.278 48.5992C261.278 48.5992 251.928 47.4023 245.93 59.8957C240.339 71.5405 232.623 82.7838 244.688 85.5097L246.867 78.7206L248.216 86.0152C249.934 86.1388 251.657 86.1683 253.378 86.1035C266.298 85.6859 278.602 86.2256 278.206 81.5849C277.68 75.4157 280.39 65.0775 275.723 57.1845Z" fill="#2F2E41"/>
<path d="M243.999 129.022C243.856 129.925 243.65 130.816 243.38 131.688C243.077 132.543 242.608 133.333 242.331 134.196C241.446 136.947 242.672 140.014 244.631 142.137C246.329 143.972 248.521 145.275 250.943 145.889C252.726 146.271 254.545 146.463 256.368 146.46C261.41 146.631 266.581 146.784 271.359 145.162C272.868 144.637 274.326 143.974 275.714 143.182C276.152 142.973 276.538 142.669 276.844 142.291C277.164 141.738 277.306 141.1 277.252 140.464C277.241 138.324 276.808 136.196 276.911 134.059C276.968 132.875 277.189 131.692 277.08 130.512C276.929 129.172 276.368 127.911 275.474 126.903C274.58 125.894 273.396 125.186 272.085 124.877C270.73 124.585 269.324 124.744 267.944 124.877C264.363 125.221 260.766 125.382 257.168 125.359C253.492 125.336 249.838 124.774 246.18 124.715C245.098 124.698 245.12 125.032 244.776 126.08C244.459 127.044 244.199 128.027 243.999 129.022Z" fill="#2F2E41"/>
<path d="M254.432 76.1939C254.255 77.1198 254.064 78.0796 253.508 78.8405C252.869 79.716 251.826 80.2162 251.138 81.054C250.102 82.3151 250.043 84.0897 250.038 85.7222C250.034 87.2261 250.065 88.8302 250.903 90.0785C251.499 90.854 252.239 91.5071 253.082 92.0021C256.225 94.1217 259.62 96.2792 263.408 96.3491C264.978 96.3781 266.661 95.9724 267.693 94.7889C268.139 94.233 268.49 93.6068 268.731 92.936C269.7 90.5458 270.287 88.0182 270.471 85.4455C270.611 84.236 270.498 83.0108 270.14 81.8472C269.68 80.5628 268.749 79.5061 268.134 78.2883C267.407 76.8403 267.141 75.204 267.372 73.6C267.403 73.487 267.393 73.367 267.345 73.2602C267.295 73.2031 267.232 73.1584 267.161 73.1297C267.09 73.1011 267.014 73.0892 266.938 73.0949L259.427 72.5536C258.727 72.5188 258.03 72.4391 257.341 72.3148C256.936 72.2324 255.867 71.6567 255.48 71.8098C254.766 72.0932 254.578 75.426 254.432 76.1939Z" fill="#A0616A"/>
<path opacity="0.1" d="M254.432 76.4286C254.255 77.3545 254.064 78.3143 253.508 79.0752C252.869 79.9507 251.826 80.4509 251.138 81.2887C250.102 82.5499 250.043 84.3244 250.038 85.9569C250.034 87.4608 250.065 89.0649 250.903 90.3132C251.499 91.0887 252.239 91.7418 253.082 92.2369C256.224 94.3564 259.62 96.514 263.408 96.5839C264.978 96.6128 266.661 96.2071 267.693 95.0236C268.139 94.4677 268.49 93.8415 268.731 93.1707C269.7 90.7806 270.287 88.2529 270.471 85.6802C270.611 84.4708 270.498 83.2455 270.14 82.0819C269.68 80.7976 268.749 79.7408 268.134 78.523C267.407 77.075 267.141 75.4387 267.372 73.8347C267.403 73.7218 267.393 73.6017 267.346 73.4949C267.295 73.4378 267.232 73.3931 267.161 73.3645C267.09 73.3358 267.014 73.3239 266.938 73.3297L259.427 72.7884C258.727 72.7536 258.03 72.6738 257.341 72.5496C256.936 72.4671 255.867 71.8915 255.48 72.0446C254.766 72.3279 254.578 75.6607 254.432 76.4286Z" fill="black"/>
<path d="M261.615 77.2021C267.701 77.2021 272.635 72.2633 272.635 66.171C272.635 60.0787 267.701 55.1399 261.615 55.1399C255.529 55.1399 250.595 60.0787 250.595 66.171C250.595 72.2633 255.529 77.2021 261.615 77.2021Z" fill="#A0616A"/>
<path d="M255.977 90.8779C256.522 91.509 257.178 92.0339 257.913 92.4262C258.679 92.7432 259.502 92.9 260.331 92.887C262.318 92.943 264.471 92.5786 265.853 91.1491C267.634 89.3063 267.576 86.334 268.972 84.1842C269.085 83.9893 269.238 83.8212 269.422 83.6916C269.656 83.564 269.921 83.5031 270.187 83.5155C271.951 83.499 273.487 84.6438 274.873 85.7349C275.526 86.1844 276.086 86.7554 276.523 87.4167C276.797 87.9521 276.984 88.5276 277.079 89.1217C277.767 92.4834 277.99 95.9206 278.211 99.345C278.333 101.236 278.455 103.13 278.446 105.025C278.416 111.269 276.966 117.409 275.524 123.485C275.338 124.268 275.084 125.143 274.373 125.518C274.056 125.66 273.715 125.743 273.368 125.763C269.238 126.248 265.1 126.735 260.942 126.799C259.32 126.824 257.698 126.784 256.077 126.681C255.798 126.677 255.521 126.629 255.257 126.538C254.899 126.366 254.591 126.104 254.363 125.778C252.114 122.941 251.982 119.019 251.996 115.398C252.031 106.544 252.347 97.6965 252.944 88.8564C252.993 88.1267 253.004 87.2406 252.479 86.6666C253.502 88.1837 254.674 89.5946 255.977 90.8779Z" fill="white"/>
<path d="M253.643 78.1409C253.271 78.8153 250.527 80.49 249.997 81.049C247.037 84.172 241.635 84.0548 238.927 87.3998C237.975 88.5767 237.48 90.0554 237.116 91.5255C236.602 93.6048 236.327 95.8723 237.189 97.8329C238.019 99.7194 239.765 101.024 240.951 102.709C242.253 104.559 242.839 106.805 243.4 108.998C243.814 110.617 244.231 112.275 244.07 113.939C243.887 115.83 242.972 117.561 242.433 119.383C241.893 121.204 241.8 123.374 243.048 124.805C243.965 125.857 245.403 126.274 246.777 126.508C248.538 126.773 250.314 126.928 252.093 126.972C253.665 127.041 255.397 127.055 256.605 126.046C257.558 125.251 257.972 123.959 258.026 122.718C258.08 121.477 257.822 120.247 257.66 119.015C257.493 117.738 257.428 116.45 257.374 115.163C257.133 109.39 257.1 103.613 257.275 97.8321C257.364 96.6307 257.305 95.4229 257.1 94.2357C256.763 92.6893 255.928 91.3073 255.231 89.8865C253.839 87.2104 253.208 84.2027 253.408 81.1921C253.619 78.0981 254.967 75.741 253.643 78.1409Z" fill="white"/>
<path d="M269.118 78.3756C269.685 78.9588 271.612 79.1511 272.333 79.5267C273.011 79.8404 273.719 80.0857 274.446 80.2591C277.077 81.0187 279.579 82.1683 281.869 83.6695C282.345 83.9482 282.766 84.312 283.111 84.7428C283.474 85.3341 283.708 85.9957 283.797 86.6839C284.151 88.4348 284.505 90.2069 284.426 91.9914C284.342 93.8856 283.772 95.7201 283.206 97.5297L281.093 104.291C279.516 109.338 277.929 114.435 277.485 119.705C277.24 122.625 277.349 125.565 277.81 128.459C277.854 128.6 277.867 128.748 277.848 128.895C277.83 129.041 277.781 129.181 277.704 129.307C277.565 129.445 277.382 129.529 277.186 129.545C276.167 129.705 275.18 129.184 274.256 128.724C271.432 127.317 268.418 126.33 265.309 125.794C266.524 124.037 267.461 122.103 268.088 120.06C268.444 118.763 268.724 117.446 268.928 116.117L269.911 110.426C270.31 108.346 270.592 106.245 270.754 104.133C270.828 103.341 270.782 102.542 270.617 101.763C270.39 101.022 270.09 100.306 269.719 99.6253C268.099 96.2525 267.339 92.4034 267.977 88.7159C268.256 87.1021 268.798 85.4862 268.572 83.8641C268.354 82.3046 268.58 81.0925 268.18 79.5491C266.539 73.2121 268.052 77.2783 269.118 78.3756Z" fill="white"/>
<path d="M238.899 92.7325C238.161 94.2664 236.926 95.5732 236.506 97.2232C236.343 97.9944 236.273 98.7825 236.297 99.5704C236.225 100.758 236.342 101.949 236.645 103.1C236.88 103.827 237.261 104.498 237.536 105.212C237.919 106.208 238.09 107.274 238.037 108.341C237.963 109.818 237.462 111.253 237.423 112.731C237.361 115.057 238.436 117.244 239.484 119.32C239.748 118.666 240.152 118.077 240.667 117.595C241.182 117.113 241.796 116.75 242.465 116.531C243.135 116.311 243.845 116.241 244.545 116.324C245.245 116.408 245.918 116.644 246.518 117.015C246.758 116.72 246.872 116.342 246.834 115.963C246.912 113.264 246.987 110.566 247.059 107.868C247.172 103.695 247.28 99.4656 246.321 95.4027C245.888 93.5683 245.215 91.7409 243.979 90.3181C243.329 89.5689 241.121 87.5956 240.054 88.4348C239.573 88.8123 239.686 89.8397 239.61 90.3599C239.495 91.1823 239.255 91.9824 238.899 92.7325Z" fill="white"/>
<path d="M284.642 88.3119C284.939 89.4181 285.066 90.563 285.019 91.7074C285.033 94.04 285.002 96.3722 284.926 98.7041C284.938 99.9002 284.785 101.092 284.472 102.246C284.234 102.997 283.866 103.701 283.62 104.449C282.881 106.691 283.285 109.123 283.348 111.483C283.393 112.247 283.328 113.013 283.155 113.758C282.765 115.221 281.718 116.403 280.988 117.729C280.294 118.988 279.875 120.399 279.046 121.574C278.218 122.748 276.783 123.679 275.392 123.318C274.339 123.045 273.59 122.112 273.072 121.153C271.942 119.046 271.556 116.619 271.975 114.265C272.495 111.401 274.176 108.86 274.782 106.013C275.614 102.103 274.349 98.0683 274.387 94.0709C274.37 93.4443 274.455 92.8191 274.638 92.2198C274.956 91.3067 275.639 90.5775 276.27 89.8452C277.058 88.93 277.791 87.968 278.463 86.9644C278.915 86.2902 279.528 84.5561 280.329 84.412C282.116 84.09 284.198 86.9295 284.642 88.3119Z" fill="white"/>
<path d="M229.623 127.284C228.635 127.035 227.616 126.926 226.598 126.962C225.527 127.021 224.482 127.307 223.531 127.802C222.58 128.297 221.745 128.989 221.081 129.832C220.418 130.675 219.942 131.65 219.684 132.691C219.426 133.733 219.393 134.818 219.586 135.873C219.833 137.016 220.237 138.12 220.785 139.152C221.588 140.783 222.55 142.409 224.036 143.454C224.931 144.028 225.895 144.487 226.904 144.82L234.728 147.771C235.879 148.205 237.031 148.639 238.193 149.041C244.033 151.062 250.121 152.273 256.289 152.642C258.166 152.818 260.058 152.722 261.908 152.357C262.355 152.299 262.765 152.077 263.059 151.735C263.208 151.475 263.296 151.184 263.316 150.885L263.797 147.511C263.905 147.041 263.891 146.552 263.756 146.089C263.536 145.522 262.983 145.165 262.456 144.862C257.312 141.905 251.306 140.274 246.976 136.215C245.957 135.259 245.104 133.745 243.866 133.096C242.461 132.36 240.807 131.94 239.356 131.261C236.183 129.779 233.063 128.075 229.623 127.284Z" fill="#2F2E41"/>
<path opacity="0.1" d="M237.435 131.832C240.2 132.699 251.876 138.709 253.877 140.807C253.609 140.904 244.508 135.798 244.234 135.716C241.731 135.028 239.279 134.163 236.898 133.128C236.424 132.909 233.817 131.877 233.935 131.278C234.068 130.602 236.944 131.678 237.435 131.832Z" fill="black"/>
<path d="M271.936 154.392C272.093 154.404 272.249 154.358 272.374 154.263C272.43 154.192 272.47 154.111 272.494 154.024C272.517 153.938 272.523 153.847 272.511 153.758L272.499 149.162C271.178 148.532 269.701 148.33 268.251 148.136L261.487 147.231C261.643 147.252 260.429 150.147 260.615 150.534C260.943 151.215 263.449 151.819 264.156 152.141C266.614 153.259 269.168 154.488 271.936 154.392Z" fill="#A0616A"/>
<path d="M250.713 149.146C249.436 149.349 248.011 149.529 247.183 150.525C246.135 151.787 246.581 153.668 247.081 155.231C247.112 155.433 247.183 155.627 247.289 155.801C247.396 155.975 247.536 156.125 247.702 156.244C247.868 156.363 248.056 156.447 248.255 156.492C248.453 156.537 248.659 156.541 248.86 156.505C250.025 156.578 251.264 156.636 252.282 156.064C252.743 155.759 253.187 155.429 253.611 155.075C254.362 154.576 255.187 154.198 256.055 153.957C257.652 153.454 259.296 153.115 260.961 152.945C261.617 152.915 262.267 152.8 262.894 152.604C263.207 152.503 263.493 152.331 263.729 152.102C263.965 151.872 264.145 151.591 264.255 151.281C264.491 150.446 264.006 149.594 263.54 148.862C263.004 147.902 262.309 147.042 261.483 146.317C260.223 145.337 259.599 146.089 258.33 146.716C255.927 147.903 253.359 148.722 250.713 149.146Z" fill="#A0616A"/>
<path d="M247.376 150.297L239.266 147.898C238.293 147.559 237.277 147.362 236.248 147.313C235.733 147.291 235.219 147.381 234.742 147.574C234.264 147.768 233.832 148.061 233.477 148.435C232.848 149.173 232.668 150.183 232.511 151.141L232.176 153.19C231.952 154.222 231.889 155.284 231.988 156.336C232.042 156.862 232.215 157.369 232.494 157.818C232.774 158.267 233.151 158.647 233.599 158.928C234.721 159.541 236.097 159.241 237.349 158.985C239.879 158.467 242.452 158.191 245.034 158.16C246.005 158.148 247.023 158.161 247.881 157.706C248.378 157.41 248.797 156.998 249.099 156.503C249.401 156.009 249.578 155.449 249.615 154.871C249.775 153.121 249.192 150.835 247.376 150.297Z" fill="#2F2E41"/>
<path d="M275.124 148.207C276.175 148.022 277.103 147.424 278.11 147.071C279.528 146.574 281.065 146.574 282.567 146.58C283.119 146.529 283.674 146.64 284.165 146.9C284.826 147.341 284.996 148.223 285.108 149.011L285.787 153.764C285.969 154.65 285.988 155.563 285.843 156.456C285.644 157.337 285.044 158.186 284.171 158.413C283.11 158.689 282.071 158.011 281.069 157.566C278.567 156.453 275.658 156.737 273.049 155.905C272.799 155.855 272.563 155.752 272.356 155.604C272.149 155.456 271.976 155.266 271.848 155.046C271.759 154.782 271.727 154.502 271.755 154.224C271.8 152.697 271.478 150.611 271.937 149.151C272.35 147.838 273.95 148.207 275.124 148.207Z" fill="#2F2E41"/>
<path d="M292.285 125.371C293.905 124.964 295.585 124.849 297.246 125.031C298.572 125.178 299.938 125.547 300.907 126.466C302.085 127.584 302.464 129.314 302.496 130.939C302.547 134.176 301.475 137.331 299.461 139.864C298.969 140.505 298.384 141.068 297.726 141.536C297.016 141.981 296.259 142.346 295.469 142.625L277.947 149.542C273.337 151.362 268.712 153.188 263.904 154.387C263.772 154.451 263.629 154.488 263.484 154.495C263.338 154.502 263.192 154.481 263.055 154.431C262.917 154.381 262.792 154.304 262.684 154.205C262.577 154.106 262.491 153.986 262.431 153.853C260.896 151.658 259.608 149.3 258.591 146.821C258.542 146.762 258.509 146.693 258.493 146.618C258.478 146.544 258.481 146.466 258.501 146.393C258.522 146.32 258.559 146.253 258.611 146.197C258.663 146.142 258.728 146.099 258.8 146.074L271.193 138.946C272.102 138.472 272.949 137.888 273.716 137.207C274.251 136.687 274.69 136.076 275.011 135.402C275.267 134.865 275.291 133.597 275.62 133.2C275.941 132.812 277.04 132.781 277.547 132.628C278.263 132.408 278.964 132.143 279.646 131.834C282.419 130.592 284.887 128.788 287.545 127.335C289.035 126.482 290.628 125.822 292.285 125.371Z" fill="#2F2E41"/>
<path opacity="0.1" d="M285.259 130.694C283.13 132.294 280.373 133.766 278.263 135.409C277.543 135.969 265.536 142.726 265.367 143.623C267.335 143.955 279.877 135.173 281.671 134.297C283.465 133.421 285.056 132.185 286.632 130.958C287.034 130.646 288.736 129.706 287.583 129.357C286.933 129.16 285.739 130.374 285.259 130.694Z" fill="black"/>
<path d="M270.609 78.5306H251.918C251.159 78.5306 250.431 78.8326 249.894 79.3701C249.357 79.9075 249.055 80.6365 249.055 81.3966V82.4461H248.852V84.7931H249.055V86.436H248.852V87.8443H249.055V105.162C249.055 105.922 249.357 106.651 249.894 107.189C250.431 107.726 251.159 108.028 251.918 108.028H270.609C271.368 108.028 272.096 107.726 272.633 107.189C273.17 106.651 273.472 105.922 273.472 105.162V81.3966C273.472 80.6365 273.17 79.9075 272.633 79.37C272.096 78.8326 271.368 78.5306 270.609 78.5306Z" fill="#D0CDE1"/>
<path d="M273.579 56.3938L264.099 51.4232L251.008 53.4567L248.3 65.431L255.042 65.1711L256.925 60.7721V65.0989L260.036 64.9791L261.842 57.9751L262.971 65.431L274.031 65.2049L273.579 56.3938Z" fill="#2F2E41"/>
<path d="M241.38 123.82C241.808 124.549 242.418 125.156 243.149 125.582C243.629 125.801 244.152 125.908 244.679 125.894C245.207 125.879 245.724 125.745 246.191 125.5C247.124 124.999 247.888 124.233 248.386 123.297C249.416 121.476 249.63 119.297 249.501 117.208C249.373 115.119 248.927 113.062 248.73 110.979C248.586 109.464 248.575 107.941 248.563 106.42C248.528 106.1 248.595 105.777 248.755 105.497C249.03 105.223 249.386 105.045 249.771 104.99C251.85 104.371 253.23 102.42 254.22 100.488C254.881 99.1979 255.455 97.7876 255.328 96.3434C255.2 94.8992 254.163 93.4443 252.722 93.297C251.534 93.1755 250.438 93.9308 249.581 94.7632C247.419 96.8763 246.03 99.6554 245.636 102.654C245.448 104.122 245.502 105.631 245.103 107.056C244.251 110.1 241.585 111.966 240.257 114.705C238.793 117.723 239.601 121.149 241.38 123.82Z" fill="#A0616A"/>
<path d="M280.606 112.191C280.303 112.897 279.861 113.535 279.308 114.067C278.754 114.6 278.1 115.016 277.383 115.291C276.492 115.649 275.509 115.709 274.581 115.462C274.121 115.335 273.697 115.102 273.341 114.784C272.985 114.465 272.707 114.068 272.529 113.625C272.387 113.178 272.309 112.713 272.298 112.245C272.165 110.192 272.216 108.077 272.961 106.16C273.248 105.42 273.636 104.719 273.862 103.959C274.085 103.081 274.199 102.179 274.202 101.273L274.447 95.6723C274.487 95.2657 274.459 94.8552 274.363 94.458C274.119 93.6476 273.363 93.121 272.668 92.6377C270.992 91.4706 269.335 90.1087 268.522 88.2332C268.243 87.6685 268.143 87.0319 268.236 86.4087C268.465 85.2966 269.586 84.5766 270.694 84.3341C271.42 84.1754 272.169 84.1653 272.898 84.3043C273.627 84.4434 274.321 84.7287 274.937 85.1432C275.553 85.5576 276.079 86.0926 276.483 86.716C276.887 87.3393 277.16 88.038 277.287 88.77C277.397 89.402 277.396 90.0476 277.46 90.6859C277.596 92.0398 278.025 93.3449 278.294 94.6789C278.956 97.9646 278.613 101.361 279.267 104.646C279.814 107.393 281.877 109.185 280.606 112.191Z" fill="#A0616A"/>
<path d="M261.514 91.1301C262.808 91.1301 263.858 90.0793 263.858 88.7831C263.858 87.4868 262.808 86.436 261.514 86.436C260.219 86.436 259.169 87.4868 259.169 88.7831C259.169 90.0793 260.219 91.1301 261.514 91.1301Z" fill="#006A71"/>
<path d="M6.91744 173.136C10.7374 173.136 13.8341 170.036 13.8341 166.213C13.8341 162.389 10.7374 159.289 6.91744 159.289C3.09745 159.289 0.000732422 162.389 0.000732422 166.213C0.000732422 170.036 3.09745 173.136 6.91744 173.136Z" fill="#2F2E41"/>
<path d="M31.9894 186.766L28.5055 183.377L21.5098 185.552L22.1817 193.66L36.5659 192.991L32.147 186.981L31.9894 186.766Z" fill="#FBBEBE"/>
<path d="M24.3699 186.697C30.5457 186.697 35.5523 181.685 35.5523 175.503C35.5523 169.321 30.5457 164.31 24.3699 164.31C18.194 164.31 13.1874 169.321 13.1874 175.503C13.1874 181.685 18.194 186.697 24.3699 186.697Z" fill="#FBBEBE"/>
<path d="M93.791 201.133C93.791 201.133 107.529 224.765 110.798 228.313C112.353 230.059 114.01 231.711 115.759 233.262C115.759 233.262 114.222 238.365 111.774 238.183C110.379 238.099 109.01 237.761 107.736 237.187C107.736 237.187 106.643 234.352 104.737 233.108C102.832 231.865 87.2612 216.532 87.6251 211.632C87.989 206.731 93.791 201.133 93.791 201.133Z" fill="#2F2E41"/>
<path d="M44.8665 234.857C44.8665 234.857 59.5141 246.237 79.4206 235.544L81.1362 234.28C81.1362 234.28 78.2411 240.799 77.9725 242.567C77.661 244.616 70.1236 256.621 68.8936 257.196C67.6636 257.771 67.3925 258.302 67.3925 258.302L72.6123 264.053L74.5422 262.631C74.5422 262.631 82.0676 251.959 84.2686 250.007C86.4696 248.054 96.9563 227.921 96.9563 227.921C96.9563 227.921 100.966 220.335 90.9595 219.764C80.9534 219.193 76.349 221.923 76.349 221.923L58.5905 224.747L44.8665 234.857Z" fill="#2F2E41"/>
<path d="M115.929 232.144L123.338 237.275C123.338 237.275 132.79 240.239 126.967 242.212C121.145 244.185 105.802 244.898 105.454 242.177C105.106 239.455 106.059 235.171 106.824 235.405C107.59 235.64 112.903 237.021 115.929 232.144Z" fill="#2F2E41"/>
<path d="M75.1979 260.868L76.5691 268.406C76.5691 268.406 80.4683 275.87 75.7867 273.554C71.105 271.238 61.4596 262.441 62.8839 260.596C64.3082 258.752 67.4519 256.752 67.7711 257.353C68.0904 257.954 70.4532 261.978 75.1979 260.868Z" fill="#2F2E41"/>
<path d="M61.0709 227.222C61.0709 227.222 51.1139 238.858 45.0688 236.031C39.0237 233.205 14.2921 200.465 17.116 194.414C19.9399 188.363 20.8868 189.651 20.8868 189.651L33.6565 190.833L29.9823 184.936C29.9823 184.936 31.6978 183.672 33.3325 185.446C34.9673 187.22 41.5304 191.65 43.8167 197.908C46.1031 204.165 52.8156 203.853 52.8156 203.853L61.0709 227.222Z" fill="white"/>
<path d="M101.281 203.227L84.0204 221.566L68.5587 194.241L83.2576 176.464L101.281 203.227Z" fill="#3F3D56"/>
<path d="M99.9777 203.028L84.3886 219.144L70.2622 194.31L83.2173 177.983L99.9777 203.028Z" fill="white"/>
<path d="M83.1748 220.866L84.0205 221.567L83.4782 222.628L59.3432 229.818L59.115 228.99L60.213 227.854L83.1748 220.866Z" fill="#B3B3B3"/>
<path d="M84.2348 221.409L59.2423 229.23L44.0072 200.415L68.5587 194.241L84.2348 221.409Z" fill="#D0CDE1"/>
<path d="M82.3533 217.5L81.281 218.29L69.3806 197.607L70.6105 197.032L82.3533 217.5Z" fill="#3F3D56"/>
<path d="M79.893 218.65L69.3207 221.806L57.319 200.535L67.7782 198.125L79.893 218.65Z" fill="#3F3D56"/>
<path d="M50.1088 202.869L52.2977 202.249C52.2977 202.249 64.5049 200.867 64.6831 204.707C64.8613 208.546 50.6592 206.765 50.6592 206.765L48.7655 204.189L50.1088 202.869Z" fill="#FBBEBE"/>
<path d="M60.8157 220.13L63.8623 218.878C63.8623 218.878 73.0591 214.751 70.4208 212.062C67.7826 209.372 59.646 214.043 59.646 214.043L58.0883 215.521L60.8157 220.13Z" fill="#FBBEBE"/>
<path d="M58.1004 214.188C58.1004 214.188 63.0613 219.137 61.9324 220.3C60.8036 221.462 42.2932 236.752 37.7046 231.86C33.116 226.968 10.7599 202.405 19.459 200.298C28.1582 198.192 30.4566 203.117 30.4566 203.117L41.9405 222.783L58.1004 214.188Z" fill="white"/>
<path d="M43.2463 199.155L51.3952 201.921L51.2621 207.81L42.6438 206.879L43.2463 199.155Z" fill="white"/>
<path opacity="0.2" d="M50.591 217.239L41.8112 222.383L31.78 206.94L41.463 219.661L50.591 217.239Z" fill="black"/>
<path d="M19.4616 185.584C26.8138 185.584 32.774 179.618 32.774 172.259C32.774 164.899 26.8138 158.933 19.4616 158.933C12.1093 158.933 6.14917 164.899 6.14917 172.259C6.14917 179.618 12.1093 185.584 19.4616 185.584Z" fill="#2F2E41"/>
<path d="M91.3916 204.39L82.0703 190.74L86.0216 185.844L95.7073 199.887L91.3916 204.39Z" fill="#006A71"/>
<path d="M91.1289 209.877L76.938 189.227L77.638 188.38L91.7624 209.08L91.1289 209.877Z" fill="#E6E6E6"/>
<path d="M89.3003 211.886L75.1095 191.236L75.8094 190.389L89.9339 211.089L89.3003 211.886Z" fill="#E6E6E6"/>
<path d="M87.7425 213.365L73.5516 192.714L74.2515 191.868L88.376 212.567L87.7425 213.365Z" fill="#E6E6E6"/>
<path d="M25.3568 163.362H29.475C31.5601 163.362 33.5598 164.192 35.0342 165.667C36.5086 167.143 37.3369 169.145 37.3369 171.232H25.3568V163.362Z" fill="#2F2E41"/>
<path d="M82.0842 158.354L81.3376 158.299C81.3086 158.687 81.2879 159.078 81.2633 159.468L77.9122 159.356L81.4273 165.949L85.3752 159.606L82.0118 159.493C82.0359 159.113 82.056 158.733 82.0842 158.354Z" fill="#006A71"/>
<path d="M101.739 104.609L102.334 105.064C103.227 103.894 104.16 102.725 105.106 101.591L104.531 101.111C103.578 102.253 102.639 103.43 101.739 104.609Z" fill="#3F3D56"/>
<path d="M107.475 97.7386L108.028 98.244C109.021 97.1551 110.052 96.0737 111.093 95.0294L110.563 94.5002C109.514 95.552 108.476 96.6417 107.475 97.7386Z" fill="#3F3D56"/>
<path d="M113.789 91.4011L114.295 91.9534C115.382 90.9548 116.503 89.9686 117.629 89.0218L117.148 88.448C116.014 89.4017 114.883 90.3955 113.789 91.4011Z" fill="#3F3D56"/>
<path d="M96.6287 111.962L97.2615 112.362C98.0485 111.116 98.8749 109.87 99.7177 108.657L99.1031 108.229C98.254 109.451 97.4215 110.707 96.6287 111.962Z" fill="#3F3D56"/>
<path d="M120.632 85.6458L121.088 86.2401C122.258 85.3409 123.461 84.4575 124.665 83.6143L124.236 83.0002C123.023 83.8498 121.811 84.7398 120.632 85.6458Z" fill="#3F3D56"/>
<path d="M92.1857 119.741L92.8514 120.084C93.526 118.771 94.2393 117.455 94.9714 116.174L94.3213 115.802C93.5837 117.093 92.8651 118.418 92.1857 119.741Z" fill="#3F3D56"/>
<path d="M84.9635 140.838L84.2385 140.651C83.8686 142.089 83.526 143.555 83.2203 145.01L83.953 145.164C84.2565 143.721 84.5965 142.265 84.9635 140.838Z" fill="#3F3D56"/>
<path d="M127.952 80.5172L128.354 81.1496C129.595 80.3591 130.871 79.5857 132.146 78.8506L131.773 78.201C130.487 78.9418 129.202 79.7209 127.952 80.5172Z" fill="#3F3D56"/>
<path d="M83.1357 149.531L82.3968 149.41C82.1564 150.873 81.9453 152.364 81.7692 153.841L82.5129 153.93C82.6874 152.464 82.8971 150.984 83.1357 149.531Z" fill="#3F3D56"/>
<path d="M88.4482 127.889L89.1418 128.171C89.697 126.803 90.2909 125.429 90.9069 124.086L90.2266 123.773C89.6058 125.126 89.0074 126.511 88.4482 127.889Z" fill="#3F3D56"/>
<path d="M85.4492 136.342L86.1654 136.561C86.5972 135.147 87.0665 133.724 87.5602 132.332L86.8546 132.081C86.3572 133.483 85.8843 134.917 85.4492 136.342Z" fill="#3F3D56"/>
<path d="M178.602 65.5786C180.07 65.5277 181.564 65.5074 183.043 65.5213L183.049 64.7718C181.561 64.7579 180.054 64.7782 178.576 64.8295L178.602 65.5786Z" fill="#3F3D56"/>
<path d="M135.691 76.0573L136.036 76.7226C137.343 76.0444 138.682 75.3874 140.014 74.7694L139.699 74.0895C138.357 74.712 137.008 75.374 135.691 76.0573Z" fill="#3F3D56"/>
<path d="M196.319 66.5132C197.78 66.7201 199.254 66.9624 200.701 67.2334L200.838 66.4967C199.381 66.2237 197.896 65.9794 196.424 65.771L196.319 66.5132Z" fill="#3F3D56"/>
<path d="M205.046 68.1475C206.48 68.4827 207.927 68.8552 209.347 69.2547L209.549 68.533C208.119 68.1306 206.662 67.7555 205.217 67.4177L205.046 68.1475Z" fill="#3F3D56"/>
<path d="M213.592 70.5526C214.99 71.0143 216.398 71.5142 217.777 72.0386L218.043 71.3382C216.654 70.8097 215.236 70.306 213.827 69.8408L213.592 70.5526Z" fill="#3F3D56"/>
<path d="M187.482 65.6574C188.956 65.7348 190.446 65.8461 191.91 65.9877L191.982 65.2419C190.507 65.099 189.006 64.987 187.521 64.9091L187.482 65.6574Z" fill="#3F3D56"/>
<path d="M169.662 65.5308L169.754 66.2748C171.213 66.0951 172.699 65.9452 174.17 65.8296L174.111 65.0823C172.629 65.1988 171.132 65.3498 169.662 65.5308Z" fill="#3F3D56"/>
<path d="M152.195 69.2803L152.416 69.9961C153.823 69.5601 155.259 69.1498 156.685 68.7767L156.495 68.0518C155.059 68.4274 153.613 68.8408 152.195 69.2803Z" fill="#3F3D56"/>
<path d="M143.789 72.3023L144.074 72.9957C145.435 72.4366 146.826 71.9013 148.207 71.4045L147.954 70.6993C146.562 71.1996 145.161 71.739 143.789 72.3023Z" fill="#3F3D56"/>
<path d="M160.846 67.0161L161.002 67.7491C162.441 67.4404 163.908 67.1595 165.362 66.9145L165.238 66.1753C163.772 66.4223 162.295 66.7052 160.846 67.0161Z" fill="#3F3D56"/>
<path d="M228.949 76.6727L224.764 70.483L223.293 73.5145C222.937 73.3553 222.583 73.1927 222.227 73.0385L221.93 73.7265C222.277 73.877 222.62 74.0348 222.966 74.189L221.501 77.206L228.949 76.6727Z" fill="#006A71"/>
</svg>
